name GIL02_free2Moments.mot
datacolumns 7
datarows 33
range 0.12500001 0.39166668
endheader

                time	          RHipMoment	          LHipMoment	         RKneeMoment	         LKneeMoment	        RAnkleMoment	        LAnkleMoment	
          0.12500001	        525.83032227	       -295.86340332	        299.86306763	         47.11663437	        -22.61042976	        -57.03978348	
          0.13333334	        522.08746338	       -297.56652832	        293.01055908	         63.92712021	        -13.89544487	        -64.38002014	
          0.14166668	        511.96633911	       -318.63473511	        267.90078735	         88.21066284	         -7.29528618	        -67.25699615	
          0.15000001	        478.74731445	       -342.56591797	        242.78363037	        113.58475494	         -3.00262737	        -65.23465729	
          0.15833335	        425.25854492	       -355.21902466	        221.29473877	        134.26879883	          2.86611390	        -58.86048126	
          0.16666667	        354.51638794	       -345.52871704	        205.43766785	        146.12364197	         11.82256317	        -49.51564407	
          0.17500001	        277.84652710	       -314.77151489	        193.28556824	        148.08715820	         23.18658829	        -39.02017212	
          0.18333334	        213.75531006	       -271.86965942	        178.10971069	        141.98539734	         41.30926895	        -29.17337608	
          0.19166668	        168.72364807	       -224.93356323	        160.51535034	        130.81295776	         64.85898590	        -21.32766724	
          0.20000002	        144.86032104	       -184.53799438	        140.83631897	        118.54972076	         95.42047119	        -16.08632851	
          0.20833334	        137.94763184	       -155.94996643	        122.19255066	        108.97228241	        129.54722595	        -13.26439476	
          0.21666667	        139.04786682	       -138.47929382	        106.57820129	        103.48651886	        164.62585449	        -12.22151756	
          0.22500001	        140.15098572	       -129.56379700	         91.86289215	        101.27654266	        199.46011353	        -12.25160027	
          0.23333335	        142.00433350	       -123.68643188	         72.14217377	        100.05451965	        233.44085693	        -12.73281670	
          0.24166667	        143.73686218	       -114.91931152	         47.23045731	         97.26324463	        263.87796021	        -13.20498657	
          0.25000000	        145.78553772	        -99.19286346	         15.90883255	         91.31985474	        294.37255859	        -13.41160107	
          0.25833333	        134.12948608	        -74.00288391	        -11.96096325	         81.20754242	        323.03112793	        -13.32698345	
          0.26666668	        105.22912598	        -42.33961105	        -31.06307602	         67.65352631	        350.68206787	        -13.16546631	
          0.27500001	         67.09782410	        -10.32135010	        -42.63544464	         53.23225403	        379.41809082	        -13.15505886	
          0.28333336	         39.29432678	         16.89430428	        -55.39323425	         40.16265106	        409.27288818	        -13.34298611	
          0.29166669	         27.66122437	         37.34785843	        -73.96565247	         29.46082878	        439.58206177	        -13.68452168	
          0.30000001	         17.57577133	         46.82415009	        -92.68377686	         22.63977623	        471.42105103	        -14.11884117	
          0.30833334	          2.11940885	         41.56874466	       -109.82506561	         20.25547981	        504.62081909	        -14.59103489	
          0.31666666	        -19.28999710	         25.95338249	       -125.28872681	         20.56409454	        538.91693115	        -15.06736851	
          0.32499999	        -35.23951340	         10.15843582	       -144.30096436	         20.74388123	        574.83605957	        -15.48148823	
          0.33333334	        -42.36833191	          0.61538929	       -166.82006836	         17.83905983	        610.66802979	        -15.80134296	
          0.34166667	        -40.43235016	          3.91840935	       -193.51223755	         10.07553291	        648.06176758	        -16.07969475	
          0.35000002	        -40.03122330	         16.67930412	       -218.55944824	         -2.66372919	        685.72943115	        -16.32857513	
          0.35833335	        -51.08508682	         40.98891068	       -236.95347595	        -19.58281708	        723.62567139	        -16.47289085	
          0.36666667	        -71.30439758	         69.20959473	       -251.15362549	        -38.61519241	        763.50775146	        -16.39945221	
          0.37500000	       -100.77409363	         95.40676880	       -261.05468750	        -57.10252380	        802.95330811	        -16.03757477	
          0.38333336	       -135.28060913	        111.79513550	       -268.82589722	        -73.89359283	        843.21282959	        -15.46184826	
          0.39166668	       -165.38362122	        119.11835480	       -278.99401855	        -87.17141724	        884.91125488	        -14.80251312	
